<?xml version="1.0" encoding="utf-8"?>
<!-- Svg Vector Icons : http://www.onlinewebfonts.com/icon -->
<!DOCTYPE svg PUBLIC "-//W3C//DTD SVG 1.1//EN" "http://www.w3.org/Graphics/SVG/1.1/DTD/svg11.dtd">
<svg version="1.1" fill="#fff" xmlns="http://www.w3.org/2000/svg" xmlns:xlink="http://www.w3.org/1999/xlink" x="0px" y="0px" viewBox="0 0 1000 1000" enable-background="new 0 0 1000 1000" xml:space="preserve">
<metadata> Svg Vector Icons : http://www.onlinewebfonts.com/icon </metadata>
<g><g transform="translate(0.000000,511.000000) scale(0.100000,-0.100000)"><path d="M8607.9,4994.1c-212-28.8-696.2-191.1-1005.1-332.4l-235.6-109.9l222.5-130.9c120.4-73.3,301-193.7,397.9-267l180.6-130.9l214.6,70.7c272.2,89,515.6,128.2,596.8,96.9c83.8-31.4,115.2-73.3,149.2-201.6c136.1-505.2-704.1-1863.6-2277.2-3688c-536.6-623-937.1-1047-1340.2-1423.9C3613.7-2895,1964.7-3978.7,1158.5-3978.7c-151.8,0-170.1,5.2-212,70.7c-68,102.1-52.4,319.3,44.5,607.2l81.1,240.8l-128.3,175.4c-73.3,96.8-191.1,274.8-264.4,397.9l-130.9,219.9l-104.7-219.9C124.6-3175.1,25.1-3756.2,156-4177.6c47.1-149.2,81.1-201.6,214.6-337.7c136.1-133.5,193.7-172.7,345.5-222.5c434.5-146.6,1007.7-36.7,1779.9,340.3c337.7,164.9,793.1,429.3,1120.3,649.1l201.6,138.8l269.6-65.5c502.6-125.6,913.5-149.2,1410.8-81.1c1758.9,232.9,3125.3,1599.3,3358.2,3358.2c65.4,492.1,44.5,895.2-78.5,1408.2l-62.8,267l170.1,256.5c1036.5,1567.9,1285.2,2682.9,717.2,3214.3c-151.8,141.3-303.6,214.6-531.3,251.3C8885.3,5028.1,8843.4,5028.1,8607.9,4994.1z"/><path d="M4532.4,3975.9c-1314-151.8-2491.8-1002.5-3057.2-2203.9C802.5,342.8,1059-1374.3,2113.9-2518.1l120.4-128.3l392.6,264.4C3490.7-1795.7,4328.3-1089,5247-170.2C6249.5,832.3,6943.1,1654.2,7534.7,2536.3l217.2,327.2l-133.5,123C6801.8,3737.7,5652.7,4106.7,4532.4,3975.9z"/></g></g>
</svg>